<?xml version="1.0" encoding="UTF-8"?>
<svg version="1.1" xmlns="http://www.w3.org/2000/svg" width="500" height="500">
<path d="M0 0 C2.13804393 -0.00072174 4.27608184 -0.00287647 6.41412425 -0.00549722 C13.92080716 -0.01467658 21.42747261 -0.01884089 28.93416095 -0.01804566 C35.85747242 -0.01744452 42.7807061 -0.02802281 49.70399791 -0.04378933 C55.71661318 -0.05697902 61.72920333 -0.06222494 67.74183291 -0.06159025 C71.30304138 -0.06133892 74.86418016 -0.06398425 78.42537379 -0.0747683 C133.60826944 -0.23009571 133.60826944 -0.23009571 150.72932696 15.97975707 C152.60432696 18.16725707 152.60432696 18.16725707 152.60432696 20.16725707 C153.59432696 20.49725707 154.58432696 20.82725707 155.60432696 21.16725707 C157.10432696 23.46803832 157.10432696 23.46803832 158.60432696 26.47975707 C159.09932696 27.44526488 159.59432696 28.4107727 160.10432696 29.40553832 C164.44240185 39.49137117 165.04618078 49.61848061 165.0083797 60.45998168 C165.01409614 61.95788619 165.02106527 63.45578635 165.02917743 64.9536798 C165.04698276 68.98683517 165.04596459 73.01977148 165.04023504 77.0529542 C165.037125 80.43487833 165.04325563 83.81676148 165.04927379 87.19867975 C165.06327574 95.18392768 165.06179376 103.16906853 165.05037189 111.15431762 C165.03889283 119.36029852 165.0529726 127.5659525 165.07976836 135.77189034 C165.10200062 142.84830863 165.10854592 149.92462487 165.10269195 157.00107557 C165.09933935 161.21392258 165.10162347 165.42656011 165.11894298 169.63937736 C165.134531 173.60326962 165.13032703 177.56668139 165.11163783 181.53055549 C165.10798457 182.97479329 165.11096368 184.41906766 165.12152362 185.86327147 C165.21415838 199.59348352 162.27031161 211.6682801 154.60432696 223.16725707 C153.94432696 223.16725707 153.28432696 223.16725707 152.60432696 223.16725707 C152.27432696 224.15725707 151.94432696 225.14725707 151.60432696 226.16725707 C150.94432696 226.16725707 150.28432696 226.16725707 149.60432696 226.16725707 C149.27432696 227.15725707 148.94432696 228.14725707 148.60432696 229.16725707 C147.94432696 229.16725707 147.28432696 229.16725707 146.60432696 229.16725707 C146.60432696 229.82725707 146.60432696 230.48725707 146.60432696 231.16725707 C145.98944415 231.50499145 145.37456134 231.84272582 144.74104571 232.19069457 C143.93280353 232.6367102 143.12456134 233.08272582 142.29182696 233.54225707 C141.49131915 233.98311645 140.69081134 234.42397582 139.86604571 234.87819457 C138.06904754 235.90239042 136.32531989 237.01992846 134.60432696 238.16725707 C126.61744577 240.84543378 118.92093758 241.61109896 110.55061603 241.59963012 C109.41032947 241.60982177 108.27004291 241.62001342 107.09520221 241.63051391 C103.35340081 241.66050481 99.61185762 241.66990472 95.86995196 241.67897582 C93.22847568 241.69586734 90.58703054 241.71389184 87.94557452 241.7333734 C81.70133013 241.77691514 75.45711085 241.8055015 69.2127614 241.82869679 C62.22832503 241.85541322 55.24403505 241.89958557 48.25969923 241.94497585 C26.0194346 242.08841886 3.7786738 242.19035397 -18.46207929 242.20241332 C-20.22796399 242.20382575 -20.22796399 242.20382575 -22.02952313 242.20526671 C-63.12714006 242.17244114 -63.12714006 242.17244114 -79.39567304 231.16725707 C-79.39567304 230.50725707 -79.39567304 229.84725707 -79.39567304 229.16725707 C-80.38567304 228.83725707 -81.37567304 228.50725707 -82.39567304 228.16725707 C-82.39567304 227.50725707 -82.39567304 226.84725707 -82.39567304 226.16725707 C-83.38567304 225.83725707 -84.37567304 225.50725707 -85.39567304 225.16725707 C-85.39567304 224.50725707 -85.39567304 223.84725707 -85.39567304 223.16725707 C-86.05567304 223.16725707 -86.71567304 223.16725707 -87.39567304 223.16725707 C-90.86653978 217.36418738 -93.64810223 211.71307142 -95.39567304 205.16725707 C-95.90259183 203.30884688 -95.90259183 203.30884688 -96.41975141 201.41289306 C-97.84796708 194.89530591 -97.69172985 188.34627622 -97.68620038 181.70583129 C-97.69219513 180.26087642 -97.69900283 178.81592473 -97.7065556 177.37097716 C-97.72413049 173.46771753 -97.72890748 169.56454574 -97.73018718 165.66125035 C-97.73161463 163.21493134 -97.7358955 160.76863424 -97.74118161 158.3223207 C-97.75965655 149.76573575 -97.76785576 141.20921287 -97.76627851 132.65260863 C-97.76507908 124.71314904 -97.78614879 116.77396215 -97.81776583 108.83457148 C-97.84404151 101.98918876 -97.85464104 95.14389447 -97.85336769 88.29846179 C-97.85286119 84.22298113 -97.85836906 80.14774289 -97.87972379 76.07231307 C-97.8992968 72.23240739 -97.89910286 68.39297058 -97.88469052 64.55304694 C-97.8826244 63.15640797 -97.88716946 61.75973816 -97.89941144 60.36315131 C-98.02137937 45.46473719 -95.19868976 28.34279162 -84.39567304 17.16725707 C-83.73567304 17.16725707 -83.07567304 17.16725707 -82.39567304 17.16725707 C-82.06567304 16.17725707 -81.73567304 15.18725707 -81.39567304 14.16725707 C-80.73567304 14.16725707 -80.07567304 14.16725707 -79.39567304 14.16725707 C-79.39567304 13.50725707 -79.39567304 12.84725707 -79.39567304 12.16725707 C-56.63809197 -3.81310865 -26.46187483 0.00504314 0 0 Z " fill="#8EB5AD" transform="translate(216.39567303657532,110.83274292945862)"/>
<path d="M0 0 C17.37602751 -0.08021762 17.37602751 -0.08021762 24.92382812 -0.09765625 C30.02486459 -0.10949874 35.12582765 -0.12332885 40.22680664 -0.15087891 C101.92191873 -0.47501112 101.92191873 -0.47501112 119.125 15.8125 C121 18 121 18 121 20 C122.485 20.495 122.485 20.495 124 21 C125.5 23.30078125 125.5 23.30078125 127 26.3125 C127.495 27.27800781 127.99 28.24351562 128.5 29.23828125 C132.83807489 39.3241141 133.44185381 49.45122354 133.40405273 60.29272461 C133.40976917 61.79062912 133.41673831 63.28852928 133.42485046 64.78642273 C133.4426558 68.8195781 133.44163762 72.85251441 133.43590808 76.88569713 C133.43279803 80.26762126 133.43892866 83.64950441 133.44494683 87.03142267 C133.45894878 95.01667061 133.4574668 103.00181145 133.44604492 110.98706055 C133.43456587 119.19304145 133.44864563 127.39869542 133.4754414 135.60463327 C133.49767366 142.68105156 133.50421896 149.7573678 133.49836498 156.8338185 C133.49501239 161.04666551 133.49729651 165.25930303 133.51461601 169.47212029 C133.53020404 173.43601255 133.52600007 177.39942432 133.50731087 181.36329842 C133.5036576 182.80753622 133.50663672 184.25181059 133.51719666 185.6960144 C133.60983142 199.42622645 130.66598464 211.50102303 123 223 C122.34 223 121.68 223 121 223 C120.67 223.99 120.34 224.98 120 226 C119.34 226 118.68 226 118 226 C117.67 226.99 117.34 227.98 117 229 C116.34 229 115.68 229 115 229 C115 229.66 115 230.32 115 231 C114.07767578 231.50660156 114.07767578 231.50660156 113.13671875 232.0234375 C112.32847656 232.46945312 111.52023437 232.91546875 110.6875 233.375 C109.88699219 233.81585938 109.08648437 234.25671875 108.26171875 234.7109375 C106.46472057 235.73513335 104.72099292 236.85267138 103 238 C92.3849735 242.10209897 81.089448 241.38538489 69.921875 241.29296875 C68.12711873 241.28854842 66.33235858 241.28549374 64.53759766 241.28381348 C57.94167213 241.26819466 51.34582983 241.22631112 44.75 241.1875 C22.59875 241.0946875 22.59875 241.0946875 0 241 C0 189.19 0 137.38 0 84 C4.02298347 86.68198898 7.22203807 88.86633328 10.625 92.125 C11.35976563 92.80820313 12.09453125 93.49140625 12.8515625 94.1953125 C18.76723711 101.91795681 19.56348177 109.64820489 19.25 119.125 C19.23195313 120.176875 19.21390625 121.22875 19.1953125 122.3125 C19.14871426 124.87540332 19.07699343 127.43782967 19 130 C24.61 130 30.22 130 36 130 C35.94852509 125.64264896 35.88501421 121.28861339 35.79248047 116.93237305 C35.76453497 115.45559785 35.74319128 113.97868043 35.72900391 112.50170898 C35.6023526 100.05188513 34.36188778 89.55753674 25.41015625 80.1875 C21.76204161 76.8764073 17.82027798 74.01732395 13.83984375 71.12109375 C7.79687829 66.60757209 2.02058902 61.51904035 0 54 C-0.30548616 49.64306619 -0.23919873 45.35873244 0 41 C1.01320312 40.65388672 1.01320312 40.65388672 2.046875 40.30078125 C8.58526414 37.91030083 11.94319436 35.90793072 15.25 29.625 C16.69369389 24.57207139 16.52105842 20.57191944 14 16 C14.06960938 16.56847656 14.13921875 17.13695312 14.2109375 17.72265625 C14.60657242 23.36516379 13.70203186 26.35756177 10.09375 30.6875 C8 32 8 32 0 33 C0 22.11 0 11.22 0 0 Z " fill="#072636" transform="translate(248,111)"/>
<path d="M0 0 C0.66 0.33 1.32 0.66 2 1 C2.640625 3.00390625 2.640625 3.00390625 3.25 5.5625 C6.49999842 16.87313806 15.60933222 23.71566639 24.6875 30.5625 C32.37697611 36.52385343 36.68230541 42.41352005 39 52 C39.45790591 57.5781265 39.38237477 63.09716367 39.25 68.6875 C39.22988608 70.17901223 39.21164403 71.67055093 39.1953125 73.16210938 C39.15518103 76.7759481 39.07684773 80.38602187 39 84 C33.39 84 27.78 84 22 84 C21.97421875 82.45570313 21.9484375 80.91140625 21.921875 79.3203125 C21.86555325 77.25518165 21.80820687 75.19007857 21.75 73.125 C21.73582031 72.11179687 21.72164063 71.09859375 21.70703125 70.0546875 C21.43657686 61.61651062 19.94272618 54.65011228 14.5625 47.9765625 C13.2940625 46.81253906 13.2940625 46.81253906 12 45.625 C11.154375 44.83351562 10.30875 44.04203125 9.4375 43.2265625 C8.2309375 42.12441406 8.2309375 42.12441406 7 41 C5.9790625 39.83597656 5.9790625 39.83597656 4.9375 38.6484375 C4.298125 38.10445312 3.65875 37.56046875 3 37 C-1.80788134 37.58504066 -4.59064865 40.84028734 -8 44 C-8.61617187 44.54011719 -9.23234375 45.08023438 -9.8671875 45.63671875 C-16.27492643 51.53568871 -19.0238878 57.42851273 -19.609375 66.12890625 C-19.67494201 68.27294741 -19.72155708 70.4176451 -19.75 72.5625 C-19.79447266 74.21862305 -19.79447266 74.21862305 -19.83984375 75.90820312 C-19.90989269 78.60508744 -19.95728495 81.3025443 -20 84 C-25.61 84 -31.22 84 -37 84 C-37.09251177 79.48234211 -37.17192869 74.9680506 -37.21972656 70.45019531 C-37.23967724 68.91785466 -37.26684816 67.38558848 -37.30175781 65.85351562 C-37.59685805 52.55664616 -36.06492665 43.37549208 -26.6328125 33.4453125 C-22.91904684 29.99602867 -18.90363607 27.05845746 -14.8046875 24.0859375 C-7.3918845 18.57279432 -1.65583888 12.42292009 -0.25 3 C-0.1675 2.01 -0.085 1.02 0 0 Z " fill="#FAFCFC" transform="translate(245,157)"/>
<path d="M0 0 C5.61 0 11.22 0 17 0 C17 26.4 17 52.8 17 80 C11.39 80 5.78 80 0 80 C0 53.6 0 27.2 0 0 Z " fill="#FCFDFD" transform="translate(267,248)"/>
<path d="M0 0 C5.61 0 11.22 0 17 0 C17 26.4 17 52.8 17 80 C11.39 80 5.78 80 0 80 C0 53.6 0 27.2 0 0 Z " fill="#FCFDFD" transform="translate(208,248)"/>
<path d="M0 0 C3.63 0 7.26 0 11 0 C11.33 3.3 11.66 6.6 12 10 C13.98 10.66 15.96 11.32 18 12 C18 13.32 18 14.64 18 16 C20.97 16 23.94 16 27 16 C27 18.97 27 21.94 27 25 C12.81 25 -1.38 25 -16 25 C-16 22.03 -16 19.06 -16 16 C-13.36 16 -10.72 16 -8 16 C-8 14.68 -8 13.36 -8 12 C-5.36 11.34 -2.72 10.68 0 10 C0 6.7 0 3.4 0 0 Z " fill="#F7FAFA" transform="translate(170,303)"/>
<path d="M0 0 C0.28875 0.598125 0.5775 1.19625 0.875 1.8125 C2.04742026 4.19327792 2.04742026 4.19327792 4 7 C3.67 7.66 3.34 8.32 3 9 C3.66 9 4.32 9 5 9 C4.91234375 9.7528125 4.8246875 10.505625 4.734375 11.28125 C4.72151817 14.10738749 4.72151817 14.10738749 6.828125 15.84375 C7.62734375 16.3903125 8.4265625 16.936875 9.25 17.5 C15.91129142 22.36746334 15.91129142 22.36746334 18 26 C18.5322806 30.96795225 17.90211022 33.24472446 16 38 C7.42 38 -1.16 38 -10 38 C-11.90308108 33.24229729 -12.44358026 30.96809886 -12 26 C-9.49070065 20.80919448 -5.70887382 18.38372182 -1.08203125 15.16015625 C1.28929545 13.12377693 1.28929545 13.12377693 1.42578125 9.93359375 C1.18773877 6.81638476 1.18773877 6.81638476 -1 4 C-0.625 1.8125 -0.625 1.8125 0 0 Z " fill="#FAFCFC" transform="translate(172,213)"/>
<path d="M0 0 C13.2 0 26.4 0 40 0 C40 2.64 40 5.28 40 8 C26.8 8 13.6 8 0 8 C0 5.36 0 2.72 0 0 Z " fill="#E8ECED" transform="translate(305,246)"/>
<path d="M0 0 C5.53588533 -0.02464775 11.071739 -0.04283496 16.60766602 -0.05493164 C18.4924373 -0.05997244 20.37720465 -0.06680498 22.26196289 -0.07543945 C24.96501636 -0.08751617 27.66801831 -0.09323068 30.37109375 -0.09765625 C31.21900986 -0.10281754 32.06692596 -0.10797882 32.9405365 -0.11329651 C34.96071068 -0.11349195 36.98077934 -0.06206211 39 0 C40 1 40 1 40 8 C26.8 8 13.6 8 0 8 C0 5.36 0 2.72 0 0 Z " fill="#E7EBEC" transform="translate(305,295)"/>
<path d="M0 0 C13.2 0 26.4 0 40 0 C40 2.31 40 4.62 40 7 C39 8 39 8 35.30639648 8.11352539 C33.66128708 8.11336624 32.01617269 8.10766988 30.37109375 8.09765625 C29.07474754 8.09553383 29.07474754 8.09553383 27.75221252 8.09336853 C24.98060708 8.08775239 22.2090812 8.07519719 19.4375 8.0625 C17.5631522 8.05748708 15.68880315 8.05292381 13.81445312 8.04882812 C9.20960456 8.03777772 4.60481579 8.0205023 0 8 C0 5.36 0 2.72 0 0 Z " fill="#EBEEEF" transform="translate(305,221)"/>
<path d="M0 0 C1 2 1 2 0.875 5.8125 C0.8326865 9.70534197 1.51276136 11.8909517 4 15 C7.67929426 18.32323353 10.52608909 18.86352677 15.375 19.3125 C20.4025985 18.87908634 23.25840605 16.86862786 26.66015625 13.21875 C28.37082115 10.38592882 28.30471616 8.53205243 28.1875 5.25 C28.16042969 4.26515625 28.13335937 3.2803125 28.10546875 2.265625 C28.05326172 1.14414063 28.05326172 1.14414063 28 0 C31.11673962 2.84571878 31.8949384 4.92837169 32.3125 9.1875 C31.82873645 15.08941527 29.79428299 19.29543116 25.5 23.375 C19.92607372 26.99805208 15.64622718 27.86232694 9 27 C3.68217537 24.24260945 -0.63816155 20.57515514 -3 15 C-3.79973229 9.28762648 -3.0591905 4.97118456 0 0 Z " fill="#ECF1F1" transform="translate(233,125)"/>
<path d="M0 0 C13.2 0 26.4 0 40 0 C40 2.31 40 4.62 40 7 C26.8 7 13.6 7 0 7 C0 4.69 0 2.38 0 0 Z " fill="#F6F7F8" transform="translate(305,271)"/>
<path d="M0 0 C3.63 0 7.26 0 11 0 C11 2.97 11 5.94 11 9 C7.37 9 3.74 9 0 9 C0 6.03 0 3.06 0 0 Z " fill="#F3F8F7" transform="translate(177,292)"/>
<path d="M0 0 C3.63 0 7.26 0 11 0 C11 2.97 11 5.94 11 9 C7.37 9 3.74 9 0 9 C0 6.03 0 3.06 0 0 Z " fill="#F3F8F8" transform="translate(177,280)"/>
<path d="M0 0 C3.63 0 7.26 0 11 0 C11 2.97 11 5.94 11 9 C7.37 9 3.74 9 0 9 C0 6.03 0 3.06 0 0 Z " fill="#F4F9F9" transform="translate(177,267)"/>
<path d="M0 0 C3.63 0 7.26 0 11 0 C11 2.97 11 5.94 11 9 C7.37 9 3.74 9 0 9 C0 6.03 0 3.06 0 0 Z " fill="#F4F8F7" transform="translate(177,254)"/>
<path d="M0 0 C3.3 0 6.6 0 10 0 C10 2.97 10 5.94 10 9 C6.7 9 3.4 9 0 9 C0 6.03 0 3.06 0 0 Z " fill="#F7FAFA" transform="translate(162,267)"/>
<path d="M0 0 C3.3 0 6.6 0 10 0 C10 2.97 10 5.94 10 9 C6.7 9 3.4 9 0 9 C0 6.03 0 3.06 0 0 Z " fill="#F3F8F7" transform="translate(162,254)"/>
<path d="M0 0 C3.3 0 6.6 0 10 0 C10 2.64 10 5.28 10 8 C6.7 8 3.4 8 0 8 C0 5.36 0 2.72 0 0 Z " fill="#FAFCFC" transform="translate(162,293)"/>
<path d="M0 0 C3.3 0 6.6 0 10 0 C10 2.64 10 5.28 10 8 C6.7 8 3.4 8 0 8 C0 5.36 0 2.72 0 0 Z " fill="#FAFDFD" transform="translate(162,280)"/>
<path d="M0 0 C0.28875 0.598125 0.5775 1.19625 0.875 1.8125 C2.04742026 4.19327792 2.04742026 4.19327792 4 7 C3.67 7.66 3.34 8.32 3 9 C3.66 9 4.32 9 5 9 C4.67 10.65 4.34 12.3 4 14 C3.01 13.34 2.02 12.68 1 12 C0.957279 10.33388095 0.95936168 8.66617115 1 7 C0.34 6.01 -0.32 5.02 -1 4 C-0.625 1.8125 -0.625 1.8125 0 0 Z " fill="#E5EFEE" transform="translate(172,213)"/>
</svg>
